<mxfile host="app.diagrams.net" agent="Mozilla/5.0 (Windows NT 10.0; Win64; x64) AppleWebKit/537.36 (KHTML, like Gecko) Chrome/136.0.0.0 Safari/537.36" version="27.0.2">
  <diagram name="Page-1" id="qWaj_lGzpXahy7tZVfa3">
    <mxGraphModel dx="1500" dy="596" grid="1" gridSize="10" guides="1" tooltips="1" connect="1" arrows="1" fold="1" page="1" pageScale="1" pageWidth="850" pageHeight="1100" math="0" shadow="0">
      <root>
        <mxCell id="0" />
        <mxCell id="1" parent="0" />
        <mxCell id="z9A6pVNQ0esQxOItZzgv-1" value="0.16.0.2" style="aspect=fixed;labelBackgroundColor=none;fillColor=#0050ef;strokeColor=#001DBC;fontColor=#ffffff;fontStyle=1;fontFamily=Verdana;whiteSpace=wrap;labelBorderColor=none;textShadow=0;" vertex="1" parent="1">
          <mxGeometry x="30" y="430" width="80" height="80" as="geometry" />
        </mxCell>
        <mxCell id="z9A6pVNQ0esQxOItZzgv-2" value="0.16.0.3" style="aspect=fixed;labelBackgroundColor=none;fillColor=#0050ef;strokeColor=#001DBC;fontColor=#ffffff;fontStyle=1;fontFamily=Verdana;whiteSpace=wrap;labelBorderColor=none;textShadow=0;" vertex="1" parent="1">
          <mxGeometry x="130" y="430" width="80" height="80" as="geometry" />
        </mxCell>
        <mxCell id="z9A6pVNQ0esQxOItZzgv-3" value="0.16.0.4" style="aspect=fixed;labelBackgroundColor=none;fillColor=#0050ef;strokeColor=#001DBC;fontColor=#ffffff;fontStyle=1;fontFamily=Verdana;whiteSpace=wrap;labelBorderColor=none;textShadow=0;" vertex="1" parent="1">
          <mxGeometry x="230" y="430" width="80" height="80" as="geometry" />
        </mxCell>
        <mxCell id="z9A6pVNQ0esQxOItZzgv-4" value="0.16.0.1" style="rounded=0;strokeColor=#001DBC;fillColor=#0050ef;labelBackgroundColor=none;fontColor=#ffffff;fontStyle=1;fontFamily=Verdana;whiteSpace=wrap;labelBorderColor=none;textShadow=0;" vertex="1" parent="1">
          <mxGeometry x="110" y="300" width="120" height="60" as="geometry" />
        </mxCell>
        <mxCell id="z9A6pVNQ0esQxOItZzgv-9" value="67.81.0.2" style="aspect=fixed;labelBackgroundColor=none;fillColor=#0050ef;strokeColor=#001DBC;fontColor=#ffffff;fontStyle=1;fontFamily=Verdana;whiteSpace=wrap;labelBorderColor=none;textShadow=0;" vertex="1" parent="1">
          <mxGeometry x="460" y="430" width="80" height="80" as="geometry" />
        </mxCell>
        <mxCell id="z9A6pVNQ0esQxOItZzgv-11" value="67.81.0.3" style="aspect=fixed;labelBackgroundColor=none;fillColor=#0050ef;strokeColor=#001DBC;fontColor=#ffffff;fontStyle=1;fontFamily=Verdana;whiteSpace=wrap;labelBorderColor=none;textShadow=0;" vertex="1" parent="1">
          <mxGeometry x="660" y="430" width="80" height="80" as="geometry" />
        </mxCell>
        <mxCell id="z9A6pVNQ0esQxOItZzgv-12" value="67.81.0.1" style="rounded=0;labelBackgroundColor=none;fillColor=#0050ef;strokeColor=#001DBC;fontColor=#ffffff;fontStyle=1;fontFamily=Verdana;whiteSpace=wrap;labelBorderColor=none;textShadow=0;" vertex="1" parent="1">
          <mxGeometry x="540" y="300" width="120" height="60" as="geometry" />
        </mxCell>
        <mxCell id="z9A6pVNQ0esQxOItZzgv-13" value="Router 1" style="ellipse;aspect=fixed;labelBackgroundColor=none;fillColor=#0050ef;strokeColor=#001DBC;fontColor=#ffffff;fontStyle=1;fontFamily=Verdana;whiteSpace=wrap;labelBorderColor=none;textShadow=0;" vertex="1" parent="1">
          <mxGeometry x="130" y="150" width="80" height="80" as="geometry" />
        </mxCell>
        <mxCell id="z9A6pVNQ0esQxOItZzgv-14" value="Router 2" style="ellipse;aspect=fixed;labelBackgroundColor=none;fillColor=#0050ef;strokeColor=#001DBC;fontColor=#ffffff;fontStyle=1;fontFamily=Verdana;whiteSpace=wrap;labelBorderColor=none;textShadow=0;" vertex="1" parent="1">
          <mxGeometry x="560" y="150" width="80" height="80" as="geometry" />
        </mxCell>
        <mxCell id="z9A6pVNQ0esQxOItZzgv-21" value="" style="endArrow=none;rounded=0;entryX=0.5;entryY=1;entryDx=0;entryDy=0;exitX=0.5;exitY=0;exitDx=0;exitDy=0;labelBackgroundColor=none;strokeColor=#001DBC;fontColor=default;fillColor=#0050ef;fontStyle=1;fontFamily=Verdana;labelBorderColor=none;textShadow=0;" edge="1" parent="1" source="z9A6pVNQ0esQxOItZzgv-4" target="z9A6pVNQ0esQxOItZzgv-13">
          <mxGeometry width="50" height="50" relative="1" as="geometry">
            <mxPoint x="400" y="350" as="sourcePoint" />
            <mxPoint x="450" y="300" as="targetPoint" />
          </mxGeometry>
        </mxCell>
        <mxCell id="z9A6pVNQ0esQxOItZzgv-22" value="" style="endArrow=none;rounded=0;entryX=0.5;entryY=1;entryDx=0;entryDy=0;exitX=0.5;exitY=0;exitDx=0;exitDy=0;labelBackgroundColor=none;strokeColor=#001DBC;fontColor=default;fillColor=#0050ef;fontStyle=1;fontFamily=Verdana;labelBorderColor=none;textShadow=0;" edge="1" parent="1" source="z9A6pVNQ0esQxOItZzgv-3">
          <mxGeometry width="50" height="50" relative="1" as="geometry">
            <mxPoint x="230" y="400" as="sourcePoint" />
            <mxPoint x="230" y="330" as="targetPoint" />
            <Array as="points">
              <mxPoint x="270" y="330" />
            </Array>
          </mxGeometry>
        </mxCell>
        <mxCell id="z9A6pVNQ0esQxOItZzgv-23" value="" style="endArrow=none;rounded=0;entryX=0.38;entryY=0.008;entryDx=0;entryDy=0;entryPerimeter=0;labelBackgroundColor=none;strokeColor=#001DBC;fontColor=default;fillColor=#0050ef;fontStyle=1;fontFamily=Verdana;labelBorderColor=none;textShadow=0;" edge="1" parent="1" source="z9A6pVNQ0esQxOItZzgv-4" target="z9A6pVNQ0esQxOItZzgv-1">
          <mxGeometry width="50" height="50" relative="1" as="geometry">
            <mxPoint x="280" y="440" as="sourcePoint" />
            <mxPoint x="240" y="340" as="targetPoint" />
            <Array as="points">
              <mxPoint x="60" y="330" />
              <mxPoint x="60" y="380" />
              <mxPoint x="60" y="410" />
            </Array>
          </mxGeometry>
        </mxCell>
        <mxCell id="z9A6pVNQ0esQxOItZzgv-24" value="" style="endArrow=none;rounded=0;entryX=0.5;entryY=1;entryDx=0;entryDy=0;exitX=0.5;exitY=0;exitDx=0;exitDy=0;labelBackgroundColor=none;strokeColor=#001DBC;fontColor=default;fillColor=#0050ef;fontStyle=1;fontFamily=Verdana;labelBorderColor=none;textShadow=0;" edge="1" parent="1">
          <mxGeometry width="50" height="50" relative="1" as="geometry">
            <mxPoint x="169.5" y="430" as="sourcePoint" />
            <mxPoint x="169.5" y="360" as="targetPoint" />
          </mxGeometry>
        </mxCell>
        <mxCell id="z9A6pVNQ0esQxOItZzgv-25" value="" style="endArrow=none;rounded=0;entryX=0.38;entryY=0.008;entryDx=0;entryDy=0;entryPerimeter=0;labelBackgroundColor=none;strokeColor=#001DBC;fontColor=default;fillColor=#0050ef;fontStyle=1;fontFamily=Verdana;labelBorderColor=none;textShadow=0;" edge="1" parent="1">
          <mxGeometry width="50" height="50" relative="1" as="geometry">
            <mxPoint x="540" y="329" as="sourcePoint" />
            <mxPoint x="490" y="430" as="targetPoint" />
            <Array as="points">
              <mxPoint x="490" y="329" />
              <mxPoint x="490" y="379" />
              <mxPoint x="490" y="409" />
            </Array>
          </mxGeometry>
        </mxCell>
        <mxCell id="z9A6pVNQ0esQxOItZzgv-27" value="" style="endArrow=none;rounded=0;entryX=0.5;entryY=1;entryDx=0;entryDy=0;exitX=0.5;exitY=0;exitDx=0;exitDy=0;labelBackgroundColor=none;strokeColor=#001DBC;fontColor=default;fillColor=#0050ef;fontStyle=1;fontFamily=Verdana;labelBorderColor=none;textShadow=0;" edge="1" parent="1">
          <mxGeometry width="50" height="50" relative="1" as="geometry">
            <mxPoint x="700" y="430" as="sourcePoint" />
            <mxPoint x="660" y="330" as="targetPoint" />
            <Array as="points">
              <mxPoint x="700" y="330" />
            </Array>
          </mxGeometry>
        </mxCell>
        <mxCell id="z9A6pVNQ0esQxOItZzgv-28" value="" style="endArrow=none;rounded=0;entryX=0.5;entryY=1;entryDx=0;entryDy=0;exitX=0.5;exitY=0;exitDx=0;exitDy=0;labelBackgroundColor=none;strokeColor=#001DBC;fontColor=default;fillColor=#0050ef;fontStyle=1;fontFamily=Verdana;labelBorderColor=none;textShadow=0;" edge="1" parent="1">
          <mxGeometry width="50" height="50" relative="1" as="geometry">
            <mxPoint x="599.5" y="300" as="sourcePoint" />
            <mxPoint x="599.5" y="230" as="targetPoint" />
          </mxGeometry>
        </mxCell>
        <mxCell id="z9A6pVNQ0esQxOItZzgv-29" value="" style="endArrow=none;rounded=0;entryX=0;entryY=0.5;entryDx=0;entryDy=0;exitX=1;exitY=0.5;exitDx=0;exitDy=0;labelBackgroundColor=none;strokeColor=#001DBC;fontColor=default;fillColor=#0050ef;fontStyle=1;fontFamily=Verdana;labelBorderColor=none;textShadow=0;" edge="1" parent="1" source="z9A6pVNQ0esQxOItZzgv-13" target="z9A6pVNQ0esQxOItZzgv-14">
          <mxGeometry width="50" height="50" relative="1" as="geometry">
            <mxPoint x="400" y="350" as="sourcePoint" />
            <mxPoint x="450" y="300" as="targetPoint" />
          </mxGeometry>
        </mxCell>
        <mxCell id="z9A6pVNQ0esQxOItZzgv-31" value="&lt;h1&gt;LAN 1: 0.16.0.0&lt;/h1&gt;" style="text;strokeColor=none;align=left;fillColor=none;html=1;verticalAlign=middle;whiteSpace=wrap;rounded=0;fontColor=default;" vertex="1" parent="1">
          <mxGeometry x="80" y="520" width="180" height="70" as="geometry" />
        </mxCell>
        <mxCell id="z9A6pVNQ0esQxOItZzgv-33" value="&lt;h1&gt;LAN 2: 67.81.0.0&lt;/h1&gt;" style="text;strokeColor=none;align=left;fillColor=none;html=1;verticalAlign=middle;whiteSpace=wrap;rounded=0;fontColor=default;" vertex="1" parent="1">
          <mxGeometry x="510" y="515" width="200" height="70" as="geometry" />
        </mxCell>
        <mxCell id="z9A6pVNQ0esQxOItZzgv-34" value="&lt;span style=&quot;font-family: -apple-system, BlinkMacSystemFont, &amp;quot;Segoe UI&amp;quot;, &amp;quot;Noto Sans&amp;quot;, Helvetica, Arial, sans-serif, &amp;quot;Apple Color Emoji&amp;quot;, &amp;quot;Segoe UI Emoji&amp;quot;; font-size: 16px; text-align: start;&quot;&gt;192.168.100.1&lt;/span&gt;" style="text;strokeColor=none;align=center;fillColor=none;html=1;verticalAlign=middle;whiteSpace=wrap;rounded=0;fontColor=light-dark(#EEEEEE, #f4f0f0);" vertex="1" parent="1">
          <mxGeometry x="140" y="110" width="60" height="30" as="geometry" />
        </mxCell>
        <mxCell id="z9A6pVNQ0esQxOItZzgv-35" value="&lt;span style=&quot;font-family: -apple-system, BlinkMacSystemFont, &amp;quot;Segoe UI&amp;quot;, &amp;quot;Noto Sans&amp;quot;, Helvetica, Arial, sans-serif, &amp;quot;Apple Color Emoji&amp;quot;, &amp;quot;Segoe UI Emoji&amp;quot;; font-size: 16px; text-align: start;&quot;&gt;192.168.100.2&lt;/span&gt;" style="text;strokeColor=none;align=center;fillColor=none;html=1;verticalAlign=middle;whiteSpace=wrap;rounded=0;fontColor=light-dark(#EEEEEE, #f4f0f0);" vertex="1" parent="1">
          <mxGeometry x="580" y="110" width="60" height="30" as="geometry" />
        </mxCell>
        <mxCell id="z9A6pVNQ0esQxOItZzgv-36" value="&lt;h1&gt;&lt;span style=&quot;font-family: -apple-system, BlinkMacSystemFont, &amp;quot;Segoe UI&amp;quot;, &amp;quot;Noto Sans&amp;quot;, Helvetica, Arial, sans-serif, &amp;quot;Apple Color Emoji&amp;quot;, &amp;quot;Segoe UI Emoji&amp;quot;; text-align: start;&quot;&gt;&lt;font style=&quot;font-size: 26px;&quot;&gt;WIde Area Network&lt;/font&gt;&lt;/span&gt;&lt;/h1&gt;" style="text;strokeColor=none;align=center;fillColor=none;html=1;verticalAlign=middle;whiteSpace=wrap;rounded=0;fontColor=light-dark(#EEEEEE, #f4f0f0);" vertex="1" parent="1">
          <mxGeometry x="240" y="60" width="280" height="30" as="geometry" />
        </mxCell>
        <mxCell id="z9A6pVNQ0esQxOItZzgv-37" value="Ethernet 1 Gb/s" style="text;strokeColor=none;align=center;fillColor=none;verticalAlign=middle;rounded=0;fontColor=default;html=1;" vertex="1" parent="1">
          <mxGeometry x="330" y="160" width="120" height="30" as="geometry" />
        </mxCell>
      </root>
    </mxGraphModel>
  </diagram>
</mxfile>
